<svg width="359" height="477" viewBox="0 0 359 477" fill="none" xmlns="http://www.w3.org/2000/svg">
<path opacity="0.7" d="M110.327 367.967C110.327 367.967 57.9626 380.229 33.7909 397.746C9.61927 415.264 15.4702 436.81 51.102 452.061C86.7339 467.311 149.204 463.622 203.553 472.496C257.903 481.371 315.592 477.822 336.769 455.638C357.947 433.454 319.061 426.335 308.335 401.547C297.608 376.76 234.422 341.638 110.327 367.967Z" fill="#DBF2FD"/>
<path d="M209.561 80.7469C209.434 78.9842 208.595 77.3705 208.389 75.6575C207.905 73.1872 207.212 70.7447 206.316 68.3463C205.683 66.2236 204.432 64.2127 203.894 62.0777C203.319 60.2218 202.605 58.3939 201.758 56.6035C200.966 54.6547 200.08 52.7306 199.209 50.8066C198.054 48.2371 196.883 45.6552 195.695 43.0857C194.8 41.3683 194.018 39.6157 193.353 37.835C192.609 35.5634 191.77 33.3166 190.884 31.0575C189.997 28.7983 189.301 26.5515 188.7 24.2799C187.718 20.916 187.117 17.49 186.325 14.0888C185.697 10.8358 184.702 7.63301 183.35 4.51835C182.43 3.11422 181.891 1.57573 181.767 0L180.184 0C180.279 0.682718 179.773 1.05511 179.155 1.46474C176.573 2.96913 174.1 4.58534 171.748 6.30583C170.529 7.27405 169.295 8.25468 167.965 9.136C164.162 11.8324 160.691 14.804 157.598 18.0113C153.524 21.878 149.975 26.0673 147.009 30.5113C145.2 32.9618 143.568 35.4897 142.119 38.0832C141.454 39.7514 140.656 41.3849 139.729 42.974C138.529 45.0643 137.616 47.2489 137.006 49.4908C136.243 51.5322 135.62 53.6039 135.139 55.6974C134.569 58.18 133.904 60.6626 133.556 63.2445C133.097 66.025 132.669 68.8179 132.495 71.6233C132.239 74.1413 132.292 76.6728 132.654 79.1828C133.223 82.2985 133.287 85.4514 133.856 88.5671C134.173 90.218 134.569 91.869 134.838 93.5323C135.371 95.9219 136.176 98.2691 137.244 100.546C138.13 102.718 138.969 104.915 139.855 107.087C140.9 109.657 142.245 112.127 143.29 114.697C144.129 116.782 145.173 118.805 146.107 120.903C146.788 122.43 147.484 123.957 148.117 125.496C148.861 127.296 150.191 129.083 150.412 130.834C150.713 133.093 151.837 135.091 152.391 137.239C153.452 140.914 154.14 144.65 154.448 148.41C154.844 156.553 153.752 164.709 155.066 172.864C155.773 177.119 157.249 181.274 159.45 185.203C161.033 188.083 163.217 190.727 164.372 193.793C165.002 194.699 165.491 195.662 165.829 196.66V196.759C165.829 197.256 165.829 197.765 165.829 198.261L167.316 198.46C170.892 198.173 174.489 198.09 178.079 198.212C182.622 198.212 187.148 198.212 191.691 198.298H193.764H193.891C193.967 198.077 194.09 197.867 194.255 197.678L195.838 194.959C195.782 194.609 195.782 194.255 195.838 193.904C196.681 190.324 196.925 186.673 196.566 183.043C196.499 181.762 196.335 180.485 196.075 179.22C194.904 175.036 194.303 170.779 193.305 166.571C192.181 162.055 191.734 157.451 191.976 152.854C192.173 148.889 193.161 144.973 194.904 141.248C197.247 136.283 199.779 131.504 202.454 126.712C204.36 123.292 205.973 119.775 207.281 116.186C208.354 113.123 209.179 110.009 209.751 106.864C210.397 102.796 210.704 98.6992 210.669 94.5999C210.764 89.9574 209.893 85.3645 209.561 80.7469ZM164.863 59.5826C164.087 61.7673 163.723 64.0141 162.837 66.174C162.141 67.8746 161.112 68.2718 159.165 67.3036C156.121 65.7808 153.968 63.3759 153.177 60.6133C152.385 57.8506 153.019 54.9546 154.939 52.5569C156.944 50.0143 158.334 47.2032 159.038 44.2649C159.316 43.1831 160.046 42.2048 161.112 41.4844C162.821 40.2431 164.578 40.7024 165.781 42.5644C167.083 44.4144 167.636 46.5318 167.364 48.6343C167.554 52.6934 166.066 56.1318 164.863 59.5826ZM187.022 120.047C185.861 122.14 183.868 123.882 181.34 125.012C180.58 125.322 179.757 125.819 178.918 125.322C178.079 124.826 178.696 124.081 178.918 123.721C180.501 121.462 180.802 118.892 181.688 116.472C182.088 115.227 182.258 113.944 182.194 112.661C182.194 109.942 183.017 107.286 183.176 104.58C183.176 103.215 183.176 101.526 182.369 100.769C180.991 99.5278 180.58 97.9141 179.124 96.7349C177.724 95.3515 176.832 93.6949 176.544 91.9435C176.254 91.2924 175.855 90.6745 175.357 90.1063C174.375 88.5299 174.929 87.7727 177.13 87.8099C182.558 87.9216 184.474 89.0512 186.879 93.0358C187.56 94.1406 187.054 95.3446 187.497 96.5239C188.272 98.5472 189.554 100.409 190.409 102.408C191.058 103.91 190.678 105.325 191.042 106.901C190.905 111.469 189.501 115.959 186.927 120.059L187.022 120.047Z" fill="#EFF5FE"/>
<path d="M349.996 257.795C349.557 258.11 349.095 258.392 348.614 258.641C347.86 259.033 347.043 259.377 346.305 259.691C347.568 259.124 348.8 258.491 349.996 257.795Z" fill="#88D4FF"/>
<path d="M353.971 254.896L353.687 255.07L353.971 254.896Z" fill="#88D4FF"/>
<path d="M267.22 286.611C264.378 287.607 261.464 288.387 258.503 288.946L262.446 287.927C263.997 287.353 265.594 286.913 267.22 286.611Z" fill="#88D4FF"/>
<path d="M104.481 202.372H104.387H104.23H104.057C104.348 202.31 104.641 202.263 104.937 202.231L104.481 202.372Z" fill="#EFF5FE"/>
<path d="M121.788 164.654C121.353 163.925 120.697 163.268 119.864 162.724C119.359 162.345 118.984 162.044 119.18 161.609C119.864 160.17 118.756 158.954 118.218 157.683C117.517 155.998 116.343 154.403 115.675 152.719C114.322 149.373 112.219 146.138 111.388 142.68C110.98 140.918 110.491 139.077 110.312 137.371C109.788 132.918 109.592 128.451 109.725 123.985C110.002 118.866 109.073 113.757 109.334 108.637C109.334 108.38 109.562 107.979 108.763 107.934C108.34 109.34 108.177 110.846 107.59 112.151C106.396 115.442 104.887 118.676 103.075 121.833C102.113 123.283 102.048 125.012 100.352 126.294C100.215 126.444 100.105 126.605 100.026 126.774C98.2699 129.189 96.6975 131.665 95.3155 134.192C94.1049 136.529 93.7468 139.033 94.2723 141.487C94.7867 143.639 95.8929 145.706 97.5324 147.577C100.26 150.624 101.933 154.058 102.423 157.616C102.912 160.694 102.048 163.717 101.982 166.774C101.982 166.774 101.982 166.852 101.982 166.896C100.825 169.428 100.108 172.05 99.2766 174.637C97.9275 178.435 97.3786 182.345 97.6465 186.249C97.9007 188.446 98.541 190.615 99.5537 192.707C100.956 195.686 102.716 198.597 104.444 201.631H104.607L105.797 203.427L104.167 203.65H104.639H105.047H105.715L106.987 205.423H107.166L109.481 205.111L110.687 204.933L117.403 204.063V202.222L117.631 200.984C117.593 200.866 117.593 200.745 117.631 200.627C117.655 200.564 117.694 200.504 117.745 200.448C118.227 199.536 118.486 198.575 118.511 197.604C119.587 193.99 120.793 190.387 121.771 186.751C122.646 183.432 123.217 180.079 123.483 176.712C123.934 172.656 123.36 168.577 121.788 164.654ZM111.616 184.397C111.421 184.66 111.14 184.889 110.795 185.066C110.451 185.243 110.051 185.364 109.628 185.419C109.204 185.473 108.768 185.461 108.353 185.383C107.937 185.304 107.554 185.162 107.231 184.966C106.622 184.579 106.141 184.106 105.821 183.581C105.5 183.056 105.348 182.49 105.373 181.921C105.096 178.887 106.661 176.076 107.199 173.154C107.329 172.541 107.395 171.922 107.394 171.302C107.394 170.042 108.356 169.584 110.1 169.607C111.844 169.629 113.23 170.298 113.246 171.403C113.246 172.964 113.246 174.526 113.246 176.076C113.165 176.968 113.165 177.862 113.246 178.753C113.4 180.698 112.84 182.639 111.616 184.397Z" fill="#EFF5FE"/>
<path d="M242.77 148.953C243.119 144.942 243.597 140.932 243.787 136.91C243.867 135.696 241.895 134.437 240.368 134.816C239.2 135.087 238.124 135.524 237.208 136.099C236.291 136.674 235.553 137.375 235.04 138.158C233.63 140.163 232.537 142.27 231.779 144.441C230.65 147.872 229.728 151.292 231.35 154.756C231.704 156.038 232.349 157.271 233.259 158.41C234.276 159.29 234.292 159.591 233.354 160.271C233.084 160.471 232.67 160.828 233.084 161.084C233.486 161.3 233.976 161.42 234.483 161.429C235.103 161.429 235.135 161.062 235.088 160.761C234.833 159.201 235.962 159.391 237.632 159.513C241.275 159.78 243.199 159.223 243.501 156.26C243.756 153.765 242.563 151.426 242.77 148.953ZM277.649 165.228C276.72 162.894 275.385 160.649 273.672 158.544C271.509 155.581 268.996 152.751 266.722 149.833C265.652 148.576 264.778 147.243 264.114 145.856C262.892 143.361 262.04 140.786 261.569 138.169C260.98 133.479 261.951 129.257 266.102 125.436C268.328 123.398 270.778 121.493 273.1 119.51C277.617 115.645 277.362 111.434 274.881 107.256C272.973 104.037 269.315 101.586 265.561 99.3692C260.437 96.4688 255.651 93.2877 251.247 89.8558C246.553 86.2123 242.623 82.1203 239.573 77.7023C238.587 76.1873 237.473 74.7057 236.599 73.1572C236.217 72.4777 235.756 71.2523 235.151 71.386C234.07 71.6311 234.674 72.7117 234.722 73.4023C234.992 76.6774 235.66 79.9191 235.835 83.1942C235.978 85.5336 236.789 87.8395 236.599 90.2012C236.614 90.3359 236.662 90.4678 236.742 90.5911C238.419 93.7827 239.364 97.1402 239.541 100.539C240.014 104.904 239.585 109.293 238.269 113.572C236.938 116.881 235.318 120.129 233.418 123.298C231.89 125.666 230.153 127.965 228.217 130.182C224.951 134.05 222.065 138.07 219.581 142.213C217.179 146.558 215.413 150.935 216.018 155.659C216.264 158.547 216.979 161.406 218.149 164.181C220.428 168.851 223.286 173.372 226.69 177.693C228.901 180.634 231.302 183.497 233.179 186.549C234.793 189.037 236.211 191.584 237.426 194.18C237.855 195.183 238.443 196.174 238.841 197.188L239.939 199.082L240.273 200.196V200.363L240.781 202.067C245.067 202.318 249.32 202.79 253.505 203.482C254.237 203.599 254.982 203.666 255.732 203.682C255.724 203.376 255.794 203.07 255.939 202.78C259.12 199.004 262.73 195.45 266.324 191.885C269.028 189.201 271.334 186.316 273.672 183.531C274.739 182.398 275.579 181.169 276.169 179.877C276.853 178.016 277.76 176.178 278.189 174.251C278.839 171.247 278.655 168.183 277.649 165.228Z" fill="#EFF5FE"/>
<path d="M191.278 199.269C191.111 199.404 190.986 199.584 190.917 199.786C190.978 199.58 191.105 199.398 191.278 199.269Z" fill="#09A8EF"/>
<path d="M191.812 199.003C191.618 199.057 191.437 199.148 191.278 199.27C191.429 199.135 191.613 199.043 191.812 199.003Z" fill="#09A8EF"/>
<path d="M240.927 203.312V203.516H240.55C235.068 202.622 229.555 201.714 224.105 200.977C222.723 200.789 221.341 200.601 219.958 200.444L215.403 199.959C214.791 199.88 214.163 199.818 213.55 199.771H213.189H213.079H212.655C208.618 199.363 204.581 199.065 200.545 198.83L199.257 198.736H199.115H198.613H198.518L197.246 198.642L193.854 198.376H193.948L197.278 198.642L198.55 198.736H198.644H199.147H199.288L200.576 198.83L203.717 199.065L207.581 199.348L212.702 199.739H213.126H213.236H213.597C214.21 199.739 214.838 199.849 215.451 199.927C217.021 200.068 218.482 200.225 220.006 200.397C226.979 201.071 233.953 202.199 240.927 203.312Z" fill="#88D4FF"/>
<path d="M193.791 198.125V198.141L193.65 198.125H193.791Z" fill="#09A8EF"/>
<path d="M165.911 195.994H165.895V196.12H165.911V195.994Z" fill="#EFF5FE"/>
<path d="M165.911 198.016H164.749H162.173H160.979H159.864C159.382 198.268 158.832 198.361 158.293 198.282C150.44 198.564 142.775 199.254 135.063 200.194C129.157 200.93 123.267 201.761 117.361 202.575V199.99L118.445 199.771L119.309 199.598C119.906 199.489 120.754 199.363 121.712 199.254L123.503 199.003L125.073 198.783L126.456 198.611C128.607 198.329 130.524 198.11 131.168 198.031H131.435C134.105 197.781 136.791 197.514 139.477 197.279C145.442 196.595 151.441 196.24 157.445 196.214H158.67L165.864 196.041C165.911 196.746 165.911 197.389 165.911 198.016Z" fill="#88D4FF"/>
<path d="M119.402 199.755L118.538 199.928L117.455 200.148L118.727 199.865H118.963L119.402 199.755Z" fill="#88D4FF"/>
<path d="M305.467 243.348C301.431 238.86 296.554 235.204 291.111 232.583C277.54 225.484 262.933 221.442 248.011 218.355C247.771 218.29 247.535 218.212 247.305 218.12L242.765 217.179C237.739 216.459 232.713 215.612 227.687 215.001C225.095 214.641 222.472 214.469 219.833 214.218C216.692 213.936 213.55 213.763 210.503 213.246C208.544 212.944 206.564 212.797 204.582 212.808C200.074 212.808 195.645 211.867 191.137 211.961C184.603 211.554 178.053 211.773 171.503 211.664L164.294 211.993C163.508 211.993 162.723 211.993 161.937 212.087L154.634 212.479C152.482 212.604 150.314 212.714 148.162 212.87C146.011 213.027 143.922 213.184 141.88 213.419C133.775 214.312 125.623 214.907 117.613 216.553H117.518C117.211 216.591 116.899 216.591 116.592 216.553C115.115 216.819 113.623 217.054 112.147 217.305C106.539 218.59 100.885 219.734 95.3244 221.175L93.0783 221.755C90.9579 222.319 88.8689 222.899 86.7956 223.541L86.073 223.761C77.2444 226.319 68.7586 229.933 60.8006 234.526C56.9849 236.704 53.5172 239.44 50.5126 242.642C43.2874 250.555 43.3031 259.189 50.5126 267.102C50.8581 267.494 51.6121 267.714 51.3765 268.466H51.455C51.8634 268.231 51.9262 268.669 52.0833 268.92C52.1341 268.918 52.1848 268.926 52.2324 268.944C52.2799 268.962 52.3234 268.989 52.36 269.025C52.3967 269.06 52.4259 269.102 52.4458 269.149C52.4657 269.195 52.476 269.245 52.4759 269.296C52.9 269.422 52.8529 269.751 52.8686 270.08C54.832 270.362 55.8215 272.085 57.3294 273.041C61.2475 275.607 65.3534 277.875 69.6122 279.826C81.5149 284.92 93.9244 288.744 106.633 291.233C119.534 293.86 132.585 295.686 145.712 296.702C153.424 297.36 161.199 297.674 168.943 297.846C178.54 298.065 188.152 298.128 197.718 297.454C204.943 296.953 212.184 296.686 219.378 295.746C223.948 295.167 228.566 294.712 233.121 294.038C241.666 292.764 250.127 291.087 258.504 289.008L262.446 287.99C263.977 287.42 265.553 286.979 267.158 286.674C273.708 284.527 281.294 281.675 283.054 281.017H283.211L283.431 280.939L285.629 279.967C288.955 278.464 292.177 276.742 295.274 274.812C295.918 274.404 296.562 273.997 297.19 273.574C297.818 273.151 298.635 272.602 299.342 272.007C300.048 271.412 300.755 270.973 301.446 270.44C301.458 270.337 301.508 270.241 301.588 270.174L301.713 270.095C301.765 270.08 301.819 270.08 301.87 270.095V270.001L302.012 269.766C302.049 269.723 302.095 269.689 302.146 269.664C302.198 269.64 302.253 269.627 302.31 269.625C302.356 269.612 302.405 269.612 302.452 269.625H302.577C302.611 269.358 302.702 269.102 302.844 268.873C302.844 268.779 302.986 268.701 303.048 268.622L303.221 268.45L303.473 268.246L303.912 267.902C304.118 267.755 304.308 267.587 304.478 267.4H304.839C304.635 266.852 305.153 266.632 305.405 266.335C311.829 258.563 311.86 250.932 305.467 243.348ZM86.183 260.929C83.6756 261.68 81.012 261.745 78.4709 261.117C78.0785 261.074 77.7047 260.928 77.3888 260.691C77.0728 260.455 76.8265 260.139 76.6754 259.775C76.5244 259.411 76.4744 259.013 76.5305 258.624C76.5866 258.234 76.7469 257.866 76.9944 257.56C77.4112 256.71 78.0498 255.988 78.8431 255.47C79.6363 254.951 80.555 254.656 81.5023 254.614C82.7514 254.537 83.9917 254.867 85.0368 255.553C86.0819 256.24 86.8755 257.247 87.2982 258.422C87.6752 259.597 87.5338 260.568 86.183 260.929ZM114.204 233.037C113.007 233.416 111.753 233.586 110.497 233.538C109.021 233.382 107.513 233.319 106.052 233.068C105.644 233.054 105.245 232.939 104.891 232.734C104.538 232.529 104.24 232.24 104.026 231.893C103.811 231.545 103.686 231.15 103.662 230.743C103.637 230.336 103.714 229.929 103.885 229.558C104.228 228.506 104.845 227.562 105.673 226.825C106.501 226.087 107.51 225.581 108.597 225.359C109.756 225.049 110.983 225.106 112.108 225.521C113.233 225.937 114.202 226.69 114.88 227.678C115.178 228.07 115.555 228.399 115.853 228.806C116.138 229.166 116.324 229.594 116.392 230.048C116.461 230.501 116.409 230.965 116.242 231.392C116.076 231.82 115.8 232.197 115.442 232.485C115.085 232.773 114.658 232.964 114.204 233.037ZM126.44 256.463C126.17 256.377 125.924 256.228 125.722 256.029C125.52 255.831 125.368 255.587 125.278 255.319C124.178 251.339 128.136 244.977 131.23 244.867C131.418 244.634 131.658 244.447 131.93 244.322C132.203 244.197 132.501 244.137 132.801 244.147C134.749 242.721 136.885 243.065 139.084 243.363C141.552 243.812 143.8 245.069 145.47 246.937C147.141 248.805 148.138 251.176 148.304 253.674C148.381 254.281 148.238 254.895 147.901 255.406C147.564 255.918 147.055 256.292 146.466 256.463C145.098 257.083 143.649 257.51 142.162 257.732C136.838 258.249 131.56 258.39 126.44 256.463ZM159.236 282.098C156.949 282.905 154.529 283.272 152.105 283.179C150.149 283.255 148.195 282.973 146.341 282.349C146.003 282.309 145.678 282.197 145.388 282.021C145.098 281.844 144.85 281.607 144.661 281.326C144.471 281.044 144.345 280.725 144.291 280.391C144.236 280.056 144.255 279.714 144.346 279.387C144.44 278.039 144.921 276.746 145.732 275.662C146.542 274.579 147.648 273.751 148.916 273.276C150.258 272.648 151.744 272.391 153.22 272.532C154.695 272.672 156.106 273.205 157.304 274.075C158.355 274.695 159.219 275.584 159.808 276.651C160.396 277.718 160.687 278.922 160.65 280.139C160.656 280.569 160.522 280.988 160.266 281.334C160.011 281.679 159.649 281.931 159.236 282.051V282.098ZM180.095 232.175C178.733 232.657 177.298 232.901 175.854 232.896C174.55 232.739 173.231 232.645 171.958 232.379C169.728 231.909 169.084 230.342 170.152 228.226C170.783 227.143 171.706 226.258 172.817 225.673C173.929 225.088 175.182 224.827 176.435 224.92C177.653 225.146 178.778 225.726 179.666 226.587C180.555 227.449 181.169 228.554 181.43 229.762C181.516 230.005 181.549 230.263 181.527 230.519C181.505 230.775 181.428 231.024 181.301 231.248C181.175 231.472 181.002 231.666 180.794 231.818C180.585 231.97 180.347 232.076 180.095 232.128V232.175ZM200.734 256.729C199.52 257.108 198.249 257.267 196.98 257.199C195.807 257.289 194.628 257.151 193.508 256.792C190.917 256.338 190.288 255.006 191.435 252.655C192.053 251.483 193.027 250.536 194.218 249.951C195.409 249.365 196.755 249.171 198.063 249.396C199.115 249.556 200.102 250.002 200.917 250.685C201.731 251.367 202.342 252.261 202.681 253.266C203.247 255.272 202.76 256.243 200.734 256.682V256.729ZM205.446 230.185C208.351 224.779 214.87 224.199 219.173 228.618C219.747 229.175 220.195 229.847 220.488 230.59C220.781 231.333 220.911 232.13 220.87 232.927C221.184 234.369 220.367 235.027 218.954 235.466C215.243 236.579 211.301 236.687 207.535 235.779C203.938 234.996 204.032 232.833 205.493 230.138L205.446 230.185ZM236.231 278.651C233.492 280.048 230.465 280.794 227.388 280.829C223.202 281.28 218.968 280.923 214.917 279.779C210.346 278.385 209.608 277.194 211.493 271.944C212.467 269.202 213.975 266.585 217.132 265.583C217.791 264.36 219.126 264.219 220.194 263.937C223.593 262.918 227.254 263.233 230.427 264.818C233.601 266.402 236.048 269.137 237.268 272.461C237.566 273.418 237.746 274.407 237.802 275.407C237.94 276.033 237.866 276.687 237.59 277.266C237.314 277.845 236.852 278.316 236.278 278.604L236.231 278.651ZM267.645 251.01C266.368 251.555 264.974 251.765 263.593 251.621C262.592 251.651 261.592 251.572 260.608 251.386C258.535 250.775 258.237 250.305 258.943 248.346C259.354 247.302 260.103 246.426 261.072 245.857C262.04 245.288 263.172 245.059 264.286 245.207C265.4 245.355 266.432 245.871 267.218 246.673C268.003 247.475 268.496 248.516 268.619 249.631C268.776 250.399 268.32 250.681 267.724 250.963L267.645 251.01Z" fill="#B6E8FB"/>
<path d="M305.043 267.823C304.776 268.09 304.54 268.372 304.273 268.638C304.105 268.816 303.921 268.979 303.723 269.124L303.362 269.359L303.158 269.453C303.024 269.519 302.881 269.566 302.734 269.594C302.767 269.327 302.859 269.07 303.001 268.842C303.001 268.748 303.142 268.669 303.205 268.591L303.378 268.419L303.629 268.215L304.069 267.87C304.275 267.724 304.465 267.556 304.634 267.369L305.043 267.823Z" fill="#B6E8FB"/>
<path d="M302.719 269.61C302.702 269.689 302.668 269.764 302.619 269.828C302.57 269.893 302.507 269.946 302.435 269.983C302.362 270.021 302.283 270.042 302.202 270.045C302.12 270.048 302.039 270.033 301.965 270.001C301.958 269.97 301.958 269.938 301.965 269.907L302.106 269.672C302.143 269.629 302.189 269.595 302.24 269.57C302.292 269.546 302.348 269.533 302.404 269.531C302.451 269.518 302.5 269.518 302.546 269.531H302.671L302.719 269.61Z" fill="#B6E8FB"/>
<path d="M301.964 269.986C301.964 270.284 301.729 270.332 301.509 270.379C301.52 270.275 301.571 270.179 301.65 270.111L301.776 270.033C301.827 270.017 301.882 270.017 301.933 270.033L301.964 269.986Z" fill="#B6E8FB"/>
<path d="M305.09 267.652C305.09 267.652 305.09 267.762 305.09 267.825L304.635 267.369H304.996C305.035 267.46 305.067 267.555 305.09 267.652Z" fill="#B6E8FB"/>
<path d="M191.278 199.27C191.437 199.148 191.618 199.057 191.812 199.003C191.613 199.043 191.429 199.135 191.278 199.27Z" fill="#174552"/>
<path d="M312.252 235.231C308.631 230.493 304.137 226.488 299.011 223.432C290.091 217.979 280.511 213.683 270.503 210.645L270.204 210.551C267.744 209.778 265.252 209.047 262.728 208.358C261.362 207.981 260.026 207.558 258.66 207.167L257.953 206.979H257.702L256.445 206.712C256.1 206.618 255.738 206.556 255.377 206.477H254.937H254.356H253.854L253.068 206.399C253.068 206.399 253.068 206.242 253.068 206.164L241.461 203.907L241.131 203.657V203.86H241.037C235.084 202.889 229.147 201.902 223.162 201.134L220.162 200.742L215.607 200.256C214.995 200.256 214.366 200.115 213.754 200.068H213.393H213.283H212.859C211.115 199.896 209.387 199.739 207.644 199.598L203.78 199.316L200.749 199.128L199.461 199.034H199.319H198.817H198.722L197.45 198.94L194.057 198.674H193.916H191.858C187.351 198.674 182.858 198.533 178.35 198.564C175.696 198.564 173.026 198.439 170.371 198.564C169.467 198.606 168.565 198.695 167.67 198.83L166.193 198.58H165.031H162.455H161.261H160.146C159.98 198.692 159.793 198.772 159.596 198.815H158.528C154.602 198.956 150.675 199.207 146.795 199.536C142.916 199.865 139.13 200.256 135.298 200.726L130.774 201.306L122.025 202.497L117.596 203.108H117.502L111.031 204.33L109.868 204.581L107.638 205.02H107.465H107.214H107.104H106.79L104.229 205.647L103.9 205.725L96.5174 207.574L93.376 208.389L91.8053 208.796L90.5173 209.157C88.287 209.799 86.088 210.489 83.889 211.225C82.7895 211.585 81.7058 211.962 80.6063 212.353L79.2084 212.855C74.218 214.664 69.3356 216.756 64.5852 219.122C57.7525 222.306 51.5532 226.696 46.2867 232.081C42.3442 236.343 39.3128 241.138 39.1871 247.171C38.9986 256.776 44.5432 263.107 51.6113 268.528C51.8469 267.792 51.093 267.573 50.7474 267.181C43.5537 259.346 43.5379 250.634 50.7474 242.721C53.7034 239.502 57.1231 236.74 60.8941 234.526C68.8135 229.964 77.2501 226.36 86.0252 223.792L86.7477 223.573C88.8367 222.946 90.9257 222.35 93.0305 221.786L95.2765 221.206C100.837 219.765 106.491 218.621 112.099 217.336C113.575 217.085 115.067 216.85 116.544 216.584H116.638C116.94 216.623 117.247 216.623 117.549 216.584C125.559 214.923 133.711 214.328 141.816 213.45C143.937 213.215 146.057 213.043 148.099 212.902C150.141 212.761 152.465 212.62 154.664 212.494L161.874 212.118C162.659 212.118 163.445 212.04 164.23 212.024L171.534 211.679C178.083 211.789 184.633 211.57 191.167 211.977C195.675 211.883 200.105 212.776 204.612 212.823C206.595 212.813 208.575 212.96 210.534 213.262C213.675 213.779 216.817 213.952 219.864 214.234C222.471 214.484 225.094 214.657 227.717 215.017C232.744 215.707 237.77 216.474 242.796 217.195L247.335 218.135C247.566 218.227 247.802 218.306 248.042 218.37C262.964 221.504 277.571 225.5 291.142 232.598C296.585 235.219 301.461 238.876 305.498 243.363C311.891 250.947 311.781 258.578 305.498 266.303C305.247 266.601 304.728 266.82 304.932 267.369C305.062 267.422 305.201 267.449 305.341 267.447H305.451C305.985 267.447 306.283 266.867 306.645 266.554C308.49 264.951 310.173 263.172 311.671 261.242C318.221 253.047 318.378 243.567 312.252 235.231ZM191.309 199.191C191.386 199.125 191.47 199.067 191.56 199.018L191.843 198.924C191.667 199.004 191.507 199.116 191.371 199.254L191.309 199.191Z" fill="#09A8EF"/>
<path d="M65.638 287.88L64.1144 287.3L64.083 287.285L63.8003 287.191L62.7165 286.768L62.4181 286.658L62.3395 286.627L61.3814 286.204L59.795 285.514L61.3186 286.141L65.638 287.88Z" fill="#09A8EF"/>
<path d="M69.6432 289.37L68.9992 289.118C69.2082 289.216 69.4233 289.3 69.6432 289.37Z" fill="#09A8EF"/>
<path d="M353.97 254.974C352.781 256.021 351.486 256.94 350.106 257.716C351.142 257.011 352.069 256.149 353.106 255.507L353.655 255.162L353.97 254.974Z" fill="#09A8EF"/>
<path d="M52.083 268.857C51.706 268.999 51.4704 268.857 51.3133 268.481H51.3919C51.8631 268.168 51.8631 268.607 52.083 268.857Z" fill="#B6E8FB"/>
<path d="M52.868 270.017C52.7871 270.002 52.7104 269.97 52.6438 269.921C52.5772 269.873 52.5222 269.811 52.483 269.739C52.4439 269.666 52.4214 269.586 52.4174 269.504C52.4133 269.422 52.4278 269.341 52.4597 269.265C52.8995 269.359 52.8523 269.688 52.868 270.017Z" fill="#B6E8FB"/>
<path d="M52.4758 269.235C52.2088 269.235 52.0674 269.125 52.0988 268.842C52.1497 268.842 52.2 268.852 52.2468 268.872C52.2936 268.892 52.3359 268.921 52.3711 268.958C52.4063 268.995 52.4338 269.038 52.4518 269.086C52.4697 269.133 52.4779 269.184 52.4758 269.235Z" fill="#B6E8FB"/>
<path d="M111.55 175.326C111.361 175.695 111.091 176.017 110.759 176.265C110.426 176.514 110.042 176.684 109.634 176.761C109.226 176.838 108.805 176.821 108.405 176.711C108.005 176.6 107.635 176.4 107.324 176.125C106.738 175.581 106.274 174.917 105.965 174.18C105.657 173.442 105.509 172.647 105.534 171.848C105.267 167.585 106.775 163.637 107.293 159.531C107.419 158.67 107.482 157.801 107.481 156.93C107.481 155.16 108.408 154.517 110.089 154.548C111.769 154.58 113.105 155.52 113.12 157.071C113.12 159.265 113.12 161.459 113.12 163.637C113.042 164.889 113.042 166.145 113.12 167.397C113.269 170.13 112.729 172.856 111.55 175.326Z" fill="#FEFEFE"/>
<path d="M253.42 130.163C253.216 135.819 252.745 141.46 252.415 147.101C252.211 150.517 253.389 153.871 253.137 157.334C252.823 161.502 250.938 162.285 247.326 161.909C245.755 161.737 244.577 161.47 244.813 163.664C244.813 164.087 244.813 164.651 244.216 164.604C243.72 164.594 243.24 164.424 242.849 164.118C242.441 163.758 242.849 163.257 243.101 162.975C244.027 162.019 244.012 161.596 243.101 160.358C242.164 158.77 241.495 157.038 241.122 155.234C239.551 150.361 240.43 145.55 241.561 140.724C242.284 137.673 243.337 134.71 244.703 131.886C245.211 130.783 245.942 129.795 246.85 128.986C247.758 128.178 248.824 127.564 249.98 127.185C251.488 126.637 253.499 128.408 253.42 130.163Z" fill="#FEFEFE"/>
<path d="M236.278 278.604C233.538 280.001 230.511 280.747 227.435 280.782C223.249 281.233 219.015 280.876 214.964 279.732C210.393 278.337 209.655 277.147 211.539 271.897C212.513 269.155 214.021 266.538 217.178 265.535C217.201 265.87 217.147 266.205 217.019 266.515C216.89 266.825 216.692 267.101 216.44 267.322C216.249 267.512 216.111 267.747 216.038 268.006C215.964 268.264 215.959 268.537 216.022 268.798C216.085 269.06 216.215 269.3 216.398 269.497C216.581 269.694 216.812 269.841 217.068 269.923C217.563 270.019 218.074 269.971 218.542 269.785C219.01 269.599 219.415 269.282 219.707 268.873C220.041 268.552 220.279 268.144 220.393 267.696C220.507 267.247 220.492 266.776 220.351 266.335C220.037 265.269 219.079 265.551 218.309 265.52C217.932 265.52 217.555 265.52 217.178 265.52C217.838 264.298 219.173 264.157 220.241 263.875C223.64 262.856 227.3 263.171 230.474 264.755C233.648 266.34 236.095 269.074 237.314 272.399C237.613 273.355 237.792 274.345 237.849 275.345C237.999 275.985 237.925 276.658 237.639 277.25C237.353 277.843 236.873 278.321 236.278 278.604Z" fill="#EFF5FE"/>
<path d="M148.209 253.627C148.303 254.229 148.179 254.845 147.86 255.364C147.54 255.884 147.046 256.273 146.466 256.463C145.097 257.083 143.649 257.51 142.162 257.732C136.837 258.328 131.56 258.469 126.455 256.494C126.185 256.408 125.939 256.26 125.737 256.061C125.535 255.862 125.383 255.619 125.293 255.35C124.193 251.37 128.151 245.008 131.246 244.899C130.818 245.349 130.419 245.825 130.052 246.325C129.912 246.494 129.809 246.691 129.75 246.903C129.692 247.114 129.678 247.336 129.711 247.553C129.743 247.77 129.821 247.978 129.94 248.163C130.058 248.349 130.214 248.507 130.398 248.628C131.277 249.349 131.968 248.863 132.628 248.174C134.01 246.842 133.288 245.51 132.785 244.147C134.733 242.721 136.869 243.065 139.068 243.363C141.514 243.825 143.739 245.083 145.393 246.94C147.047 248.797 148.037 251.148 148.209 253.627Z" fill="#EFF5FE"/>
<path d="M160.649 280.092C160.666 280.53 160.537 280.96 160.281 281.315C160.024 281.67 159.656 281.929 159.235 282.051C156.948 282.858 154.529 283.225 152.104 283.132C150.148 283.208 148.195 282.926 146.34 282.302C146.003 282.262 145.678 282.15 145.388 281.974C145.098 281.797 144.85 281.56 144.66 281.279C144.471 280.997 144.345 280.678 144.29 280.344C144.236 280.009 144.255 279.667 144.345 279.34C144.44 277.992 144.921 276.699 145.731 275.615C146.542 274.532 147.647 273.704 148.916 273.229C150.258 272.601 151.744 272.344 153.219 272.485C154.695 272.625 156.105 273.158 157.303 274.028C158.354 274.648 159.219 275.537 159.807 276.604C160.396 277.671 160.687 278.875 160.649 280.092Z" fill="#EFF5FE"/>
<path d="M219 235.481C215.289 236.594 211.348 236.702 207.581 235.795C203.937 234.996 204.031 232.833 205.492 230.138C208.398 224.732 214.916 224.152 219.22 228.571C219.794 229.128 220.242 229.8 220.535 230.543C220.827 231.286 220.957 232.083 220.916 232.88C221.231 234.385 220.414 235.043 219 235.481Z" fill="#EFF5FE"/>
<path d="M114.204 233.037C113.007 233.416 111.752 233.586 110.497 233.538C109.021 233.382 107.513 233.319 106.052 233.068C105.643 233.054 105.245 232.939 104.891 232.734C104.537 232.529 104.24 232.24 104.026 231.893C103.811 231.545 103.686 231.15 103.661 230.743C103.637 230.336 103.713 229.929 103.885 229.558C104.228 228.506 104.845 227.562 105.673 226.825C106.501 226.087 107.509 225.581 108.597 225.359C109.756 225.049 110.982 225.106 112.108 225.521C113.233 225.937 114.202 226.69 114.879 227.678C115.178 228.07 115.555 228.399 115.853 228.806C116.138 229.166 116.324 229.594 116.392 230.048C116.461 230.501 116.409 230.965 116.242 231.392C116.075 231.82 115.8 232.197 115.442 232.485C115.085 232.773 114.658 232.964 114.204 233.037Z" fill="#EFF5FE"/>
<path d="M200.733 256.682C199.52 257.061 198.248 257.22 196.979 257.152C195.806 257.242 194.628 257.104 193.508 256.745C190.916 256.291 190.288 254.959 191.435 252.608C192.052 251.436 193.027 250.489 194.218 249.904C195.408 249.318 196.755 249.124 198.063 249.349C199.114 249.509 200.102 249.955 200.916 250.638C201.731 251.32 202.341 252.214 202.681 253.219C203.246 255.272 202.759 256.244 200.733 256.682Z" fill="#EFF5FE"/>
<path d="M180.094 232.128C178.732 232.61 177.298 232.854 175.853 232.849C174.549 232.692 173.23 232.598 171.958 232.332C169.727 231.862 169.083 230.295 170.151 228.179C170.782 227.096 171.706 226.211 172.817 225.626C173.928 225.041 175.181 224.78 176.434 224.873C177.653 225.099 178.777 225.679 179.666 226.54C180.554 227.402 181.168 228.507 181.429 229.715C181.523 229.96 181.563 230.223 181.545 230.485C181.526 230.747 181.451 231.001 181.324 231.231C181.197 231.461 181.021 231.661 180.808 231.815C180.596 231.97 180.352 232.077 180.094 232.128Z" fill="#EFF5FE"/>
<path d="M86.1824 260.929C83.6751 261.68 81.0115 261.745 78.4703 261.117C78.0779 261.074 77.7041 260.928 77.3882 260.691C77.0723 260.455 76.8259 260.139 76.6749 259.775C76.5239 259.411 76.4738 259.013 76.5299 258.624C76.5861 258.234 76.7463 257.866 76.9939 257.56C77.4107 256.71 78.0493 255.988 78.8425 255.47C79.6358 254.951 80.5544 254.656 81.5018 254.614C82.7508 254.537 83.9911 254.867 85.0363 255.553C86.0814 256.24 86.8749 257.247 87.2976 258.422C87.6746 259.597 87.5332 260.568 86.1824 260.929Z" fill="#EFF5FE"/>
<path d="M268.697 249.584C268.697 250.399 268.32 250.681 267.724 250.963C266.447 251.508 265.052 251.718 263.671 251.574C262.671 251.604 261.67 251.525 260.687 251.339C258.614 250.728 258.315 250.258 259.022 248.299C259.432 247.255 260.182 246.379 261.15 245.81C262.119 245.241 263.25 245.012 264.364 245.16C265.478 245.308 266.511 245.824 267.296 246.626C268.082 247.428 268.575 248.469 268.697 249.584Z" fill="#EFF5FE"/>
<path d="M132.581 248.127C131.874 248.816 131.23 249.302 130.35 248.581C130.164 248.458 130.007 248.296 129.888 248.107C129.77 247.918 129.693 247.706 129.663 247.485C129.634 247.264 129.651 247.039 129.716 246.825C129.78 246.612 129.889 246.414 130.036 246.246C130.404 245.746 130.802 245.27 131.23 244.82C131.418 244.587 131.657 244.4 131.93 244.275C132.203 244.15 132.501 244.09 132.801 244.1C133.24 245.494 133.963 246.795 132.581 248.127Z" fill="#FEFEFE"/>
<path d="M302.844 282.114L304.037 281.534L304.634 281.174L302.844 282.114Z" fill="#09A8EF"/>
<path d="M217.194 265.52C217.571 265.52 217.948 265.52 218.309 265.52C219.095 265.52 220.037 265.269 220.367 266.335C220.499 266.776 220.509 267.246 220.396 267.692C220.282 268.139 220.05 268.547 219.723 268.873C219.429 269.281 219.025 269.597 218.557 269.783C218.09 269.969 217.579 270.017 217.084 269.923C216.827 269.843 216.594 269.697 216.409 269.501C216.224 269.305 216.093 269.065 216.028 268.803C215.964 268.542 215.968 268.268 216.04 268.009C216.112 267.749 216.25 267.513 216.44 267.322C216.693 267.101 216.891 266.825 217.019 266.515C217.147 266.205 217.201 265.87 217.178 265.536L217.194 265.52Z" fill="#FEFEFE"/>
<path d="M304.634 281.174L304.037 281.534L302.844 282.114L304.634 281.174Z" fill="#88D4FF"/>
<path d="M65.638 287.88L64.1144 287.3L64.083 287.285L63.8003 287.191L62.7165 286.768L62.4181 286.658L62.3395 286.627L61.3814 286.204L59.795 285.514L61.3186 286.141L65.638 287.88Z" fill="#88D4FF"/>
<path d="M69.6432 289.37L68.9992 289.118C69.2082 289.216 69.4233 289.3 69.6432 289.37Z" fill="#88D4FF"/>
<path d="M65.638 287.88L64.1144 287.3L64.083 287.285L63.8003 287.191L62.7165 286.768L62.4181 286.658L62.3395 286.627L61.3814 286.204L59.795 285.514L61.3186 286.141L65.638 287.88Z" fill="#09A8EF"/>
<path d="M353.97 261.743C346.352 268.403 336.896 269.907 327.268 271.145C326.012 271.302 325.446 271.553 325.399 272.994C324.504 304.647 315.833 334.356 302.86 362.984C300.017 369.252 296.907 375.379 293.608 381.427C293.263 382.306 292.726 383.098 292.038 383.746C291.149 386.292 289.802 388.655 288.064 390.719C287.38 392.391 286.488 393.97 285.409 395.42C283.399 398.664 281.357 401.891 279.236 405.072C274.037 412.907 266.514 417.906 258.252 421.933C245.341 428.201 231.55 431.617 217.414 433.92C208.919 435.329 200.35 436.245 191.749 436.662C191.403 436.662 190.979 436.552 190.775 437.007H162.88C161.2 436.428 159.421 436.193 157.649 436.317C140.857 435.298 124.271 432.09 108.314 426.775C98.3712 423.296 88.9627 418.83 81.1564 411.497C76.57 407.188 73.6485 401.672 70.2558 396.517C69.015 394.637 67.9155 392.662 66.7532 390.735C66.7532 390.594 66.6118 390.453 66.5333 390.327L66.3291 389.607C64.745 387.622 63.4835 385.401 62.5908 383.025C61.008 380.863 59.675 378.529 58.617 376.068C47.3414 354.652 39.0199 331.813 33.8786 308.172C31.3771 296.598 29.973 284.815 29.6848 272.979C29.6848 271.6 29.2293 271.208 27.8942 271.067C20.6853 270.528 13.6367 268.674 7.09827 265.598C5.87633 264.966 4.7099 264.232 3.61134 263.404C2.40709 262.645 1.43585 261.568 0.804145 260.294C0.172437 259.02 -0.0953469 257.597 0.0301586 256.181C0.155814 254.818 0.0301586 253.439 0.1244 252.06C2.11918 256.588 6.21869 258.516 10.4281 260.224C16.322 262.395 22.4821 263.765 28.7424 264.298C29.3393 264.298 29.9047 264.298 30.3131 264.924C36.9571 273.464 46.02 278.823 55.4442 283.524C56.2138 283.9 57.0149 284.292 57.7374 284.637C58.1772 284.84 58.6013 285.028 59.0411 285.201L59.6693 285.467L61.24 286.157L62.1982 286.58L62.4966 286.689L63.5961 287.112L63.8788 287.206L65.4495 287.786H65.5751L68.7165 289.008L69.3605 289.259C85.0613 294.759 101.264 298.711 117.738 301.058C131.3 303.142 144.963 304.502 158.67 305.132C170.529 305.665 182.372 305.775 194.215 305.289C217.456 304.526 240.564 301.466 263.2 296.154H263.388L264.519 295.856H264.598H264.833H265.053L268.461 294.775C270.44 294.164 273.064 293.318 276.016 292.346L277.242 291.939L280.147 290.967L280.87 290.732C283.226 289.917 285.692 289.071 288.126 288.194L289.572 287.661C293.467 286.235 297.268 284.778 300.566 283.367L302.875 282.349L304.069 281.769L304.666 281.409C305.514 280.939 306.362 280.484 307.179 279.998L308.247 279.387L309.582 278.573C310.195 278.212 310.792 277.836 311.388 277.429C311.703 277.241 312.017 277.021 312.331 276.802C312.975 276.394 313.587 275.956 314.2 275.517C314.813 275.078 315.205 274.781 315.771 274.404L316.949 273.496L317.059 273.402C317.655 272.932 318.237 272.43 318.818 271.929C319.399 271.427 320.012 270.879 320.593 270.362C321.132 269.936 321.617 269.447 322.038 268.904C324.205 265.112 327.755 264.345 331.76 263.906C335.462 263.506 339.107 262.697 342.629 261.493L343.273 261.258L344.059 260.96C344.656 260.725 345.41 260.412 346.258 260.036C347.106 259.659 347.828 259.377 348.567 258.986C349.047 258.737 349.509 258.454 349.949 258.14C349.985 258.15 350.023 258.15 350.059 258.14C351.44 257.363 352.735 256.444 353.923 255.397L354.033 255.303C357.394 252.169 357.504 250.242 357.441 249.662C357.441 249.662 357.441 249.537 357.441 249.506C361.478 256.949 353.97 261.743 353.97 261.743Z" fill="#09A8EF"/>
<path d="M349.996 257.795C349.557 258.11 349.095 258.392 348.614 258.641C347.86 259.033 347.043 259.377 346.305 259.691C347.568 259.124 348.8 258.491 349.996 257.795Z" fill="#09A8EF"/>
<path d="M91.4133 205.271H91.1935L88.8688 205.85L91.4133 205.271Z" fill="#88D4FF"/>
<path d="M104.937 202.325C104.641 202.357 104.348 202.404 104.057 202.466H104.23H104.387H104.481L104.937 202.325Z" fill="#88D4FF"/>
<path d="M354.08 254.896H353.97L353.687 255.1L353.138 255.444C352.101 256.134 351.174 257.011 350.138 257.654C350.102 257.665 350.064 257.665 350.028 257.654C348.831 258.35 347.599 258.983 346.337 259.55C345.488 259.926 344.766 260.239 344.138 260.474L343.352 260.772L342.708 261.007C339.186 262.211 335.541 263.021 331.839 263.42C327.834 263.859 324.284 264.627 322.116 268.419C321.696 268.961 321.211 269.451 320.671 269.876C320.09 270.424 319.493 270.957 318.897 271.443C318.3 271.929 317.734 272.446 317.137 272.916L317.027 273.01L315.849 273.919C315.347 274.295 314.86 274.671 314.279 275.031C313.698 275.392 313.054 275.909 312.41 276.316L311.467 276.943C310.87 277.35 310.273 277.726 309.661 278.087L308.326 278.902L307.258 279.513C306.441 279.998 305.593 280.453 304.745 280.923L302.954 281.863L300.645 282.882C297.409 284.292 293.608 285.749 289.65 287.175L288.205 287.708C285.771 288.585 283.305 289.432 280.949 290.246L280.226 290.481L277.32 291.453L276.095 291.86C273.142 292.832 270.519 293.678 268.54 294.289L265.132 295.37H264.912H264.676H264.598L263.467 295.668H263.278C240.643 300.98 217.535 304.04 194.294 304.803C182.451 305.289 170.608 305.179 158.749 304.647C145.16 304.05 131.612 302.738 118.162 300.714C101.656 298.523 85.4058 294.723 69.6434 289.369C69.4239 289.304 69.2088 289.226 68.9994 289.134L65.8581 287.912H65.7324L61.2873 286.141L59.7167 285.514L59.0884 285.248C58.6486 285.075 58.2245 284.887 57.7847 284.684C57.0151 284.339 56.214 283.947 55.4915 283.571C45.9888 278.87 36.973 273.511 30.3604 264.971C29.8735 264.345 29.308 264.407 28.7897 264.345C22.5219 263.799 16.3564 262.413 10.4597 260.224C6.31312 258.516 2.15078 256.588 0.156004 252.06C-0.393739 248.518 1.44397 246.215 4.17698 244.397L4.56965 244.053C4.66073 243.947 4.78036 243.871 4.91413 243.832C5.0479 243.793 5.19009 243.793 5.32358 243.833C6.56725 242.448 8.27772 241.567 10.1299 241.357L10.5069 241.06L11.0252 240.793C16.5023 238.808 22.2154 237.544 28.0201 237.033C28.5924 236.983 29.1471 236.81 29.6461 236.526C30.145 236.242 30.5763 235.854 30.9102 235.387C36.1932 229.319 42.5909 224.314 49.7585 220.642C60.5451 214.918 71.955 210.449 83.764 207.323L85.476 206.853L86.6697 206.54L88.9158 205.944L91.2404 205.365H91.4603H91.6645L93.7378 204.848C95.3871 204.424 97.0677 204.033 98.6384 203.672L100.209 203.328L101.057 203.155L101.858 202.983L103.319 202.716L103.9 202.622H104.167H103.994C104.285 202.56 104.579 202.513 104.874 202.481H105.267H105.911L107.136 204.973H106.885H106.775H106.837H106.618L104.057 205.6L103.727 205.678L96.3452 207.527C95.2928 207.793 94.2248 208.06 93.2038 208.342L91.6331 208.749H91.5389L90.2509 209.11C88.0205 209.752 85.8216 210.442 83.6226 211.178C82.5231 211.538 81.4393 211.915 80.3398 212.306L78.9419 212.808C73.9516 214.617 69.0692 216.709 64.3188 219.075C57.486 222.259 51.2868 226.649 46.0202 232.034C42.0778 236.296 39.0463 241.091 38.9207 247.124C38.7322 256.745 44.3082 263.091 51.392 268.513C51.5491 268.857 51.7847 269.03 52.1616 268.889C52.1616 269.171 52.2716 269.296 52.5386 269.281C52.5067 269.356 52.4922 269.438 52.4963 269.52C52.5003 269.602 52.5228 269.682 52.562 269.754C52.6012 269.826 52.6561 269.889 52.7227 269.937C52.7894 269.985 52.866 270.018 52.947 270.033C54.9103 270.315 55.8999 272.038 57.4077 272.994C61.3259 275.56 65.4317 277.828 69.6905 279.779C81.5933 284.873 94.0027 288.697 106.712 291.187C119.612 293.813 132.664 295.639 145.791 296.655C153.503 297.313 161.278 297.627 169.021 297.799C178.618 298.018 188.231 298.081 197.796 297.407C205.021 296.906 212.262 296.639 219.456 295.699C224.027 295.12 228.645 294.665 233.2 293.991C241.744 292.717 250.205 291.04 258.582 288.961C261.543 288.403 264.457 287.623 267.299 286.627C273.849 284.48 281.436 281.628 283.195 280.97H283.352L283.572 280.892L285.771 279.92C289.096 278.417 292.318 276.695 295.415 274.765C296.059 274.357 296.703 273.95 297.331 273.527C297.959 273.104 298.776 272.555 299.483 271.96C300.19 271.365 300.896 270.926 301.588 270.393C301.807 270.393 302.027 270.299 302.043 270.001C302.118 270.033 302.199 270.048 302.28 270.045C302.361 270.042 302.441 270.021 302.513 269.983C302.585 269.946 302.648 269.893 302.697 269.828C302.746 269.764 302.78 269.689 302.797 269.61C302.944 269.582 303.087 269.534 303.221 269.469L303.425 269.375L303.786 269.14C303.984 268.994 304.168 268.832 304.336 268.654C304.603 268.387 304.839 268.105 305.106 267.839C305.106 267.839 305.106 267.714 305.106 267.667C305.068 267.563 305.021 267.463 304.965 267.369C305.128 267.42 305.303 267.42 305.467 267.369H305.577C306.111 267.369 306.41 266.789 306.771 266.476C308.616 264.873 310.299 263.094 311.797 261.164C318.237 253.016 318.394 243.536 312.268 235.199C308.647 230.462 304.153 226.457 299.027 223.4C290.107 217.948 280.527 213.652 270.519 210.614L270.221 210.52C266.487 209.035 262.622 207.902 258.676 207.135L257.969 206.947H257.718L256.462 206.681C256.116 206.587 255.755 206.524 255.393 206.446H254.954C254.31 206.289 253.65 206.085 253.006 205.944L241.399 203.688L241.069 203.437V203.641H240.975V203.469C234.001 202.356 227.027 201.228 220.006 200.429C218.435 200.256 216.974 200.1 215.451 199.959C214.838 199.88 214.21 199.818 213.597 199.771H213.236H213.126H212.702L207.582 199.379L203.718 199.097L200.576 198.862L199.288 198.768H199.147H198.644H198.55L197.278 198.674L193.948 198.407H193.854C193.845 198.361 193.845 198.313 193.854 198.266L194.058 197.812C194.053 197.765 194.053 197.718 194.058 197.671L194.262 197.358C194.328 197.263 194.407 197.178 194.498 197.107C194.662 196.968 194.847 196.857 195.048 196.778C195.244 196.7 195.45 196.647 195.66 196.621C196.403 196.566 197.148 196.566 197.89 196.621C200.941 196.553 203.993 196.657 207.032 196.934C209.466 197.138 211.885 197.405 214.304 197.64C219.754 198.172 225.205 198.752 230.655 199.316L231.409 199.41C234.55 200.225 237.786 200.147 240.833 201.228V201.103C245.065 201.455 249.265 202.12 253.399 203.093C254.121 203.257 254.857 203.351 255.598 203.375C258.095 203.876 260.655 204.722 263.153 205.239C270.346 207.198 277.54 209.11 284.561 211.632C295.792 215.675 306.677 220.439 316.226 227.788C319.175 229.987 321.816 232.569 324.08 235.466C324.533 236.037 325.108 236.5 325.762 236.823C326.417 237.145 327.135 237.318 327.865 237.33C332.176 237.8 336.441 238.617 340.619 239.775L341.043 239.885C343.525 240.543 356.389 244.194 357.426 249.521C357.551 249.819 357.441 251.762 354.08 254.896Z" fill="#88D4FF"/>
<path d="M193.791 198.11L193.885 198.125H193.791V198.11Z" fill="#88D4FF"/>
<path d="M255.362 206.399C255.723 206.399 256.085 206.54 256.43 206.634L255.268 206.414C254.969 206.414 254.655 206.32 254.341 206.273H253.838H252.959V206.117C252.959 206.117 252.959 206.117 252.959 206.023L241.351 203.766H241.022H240.645L224.199 201.228L223.147 201.071L220.006 200.585C227.027 201.385 234.001 202.513 240.974 203.625V203.798H241.069V203.594L241.399 203.845L253.006 206.101C253.65 206.242 254.31 206.446 254.954 206.603L255.362 206.399Z" fill="#88D4FF"/>
<path d="M311.782 261.164C310.284 263.094 308.6 264.873 306.755 266.476C306.394 266.789 306.096 267.306 305.562 267.369C306.033 267.259 306.316 266.773 306.661 266.491C308.506 264.888 310.19 263.109 311.687 261.179C318.127 253.031 318.284 243.551 312.159 235.215C308.538 230.477 304.044 226.473 298.918 223.416C289.997 217.964 280.418 213.667 270.41 210.63C267.849 209.83 265.242 209.063 262.635 208.342C261.064 207.903 259.493 207.386 257.923 206.963H257.671C257.294 206.853 256.902 206.759 256.509 206.681L257.765 206.947H258.017L258.724 207.135C262.669 207.902 266.534 209.035 270.268 210.52L270.567 210.614C280.575 213.652 290.155 217.948 299.075 223.4C304.201 226.457 308.695 230.462 312.316 235.199C318.378 243.567 318.221 253.047 311.782 261.164Z" fill="#88D4FF"/>
<path d="M119.402 199.755L118.539 199.928H118.696H118.931L119.402 199.755Z" fill="#88D4FF"/>
<path d="M119.402 199.755L118.538 199.928L117.455 200.148L118.727 199.865H118.963L119.402 199.755Z" fill="#88D4FF"/>
<path d="M193.775 198.11H193.759V198.125H193.775V198.11Z" fill="#88D4FF"/>
<path d="M194.325 197.06L194.121 197.373C194.116 197.42 194.116 197.467 194.121 197.514V197.342C194.176 197.239 194.245 197.144 194.325 197.06Z" fill="#88D4FF"/>
<path d="M240.896 200.82V200.946C237.849 199.865 234.613 199.943 231.472 199.128L230.718 199.034C225.267 198.47 219.817 197.89 214.367 197.358C211.948 197.122 209.529 196.856 207.095 196.652C209.529 196.84 211.948 197.091 214.367 197.326C219.817 197.843 225.267 198.407 230.718 198.893L231.472 198.987C234.582 199.849 237.849 199.771 240.896 200.82Z" fill="#88D4FF"/>
<path d="M253.839 206.211H252.959C252.959 206.132 252.959 206.023 252.959 205.96C253.603 206.101 254.263 206.305 254.907 206.461L255.252 206.54C254.954 206.54 254.64 206.446 254.326 206.399L253.839 206.211Z" fill="#09A8EF"/>
<path d="M270.393 210.645C267.833 209.846 265.226 209.078 262.618 208.358C261.048 207.919 259.477 207.402 257.906 206.979L258.707 207.151C262.653 207.917 266.518 209.05 270.252 210.536L270.393 210.645Z" fill="#09A8EF"/>
</svg>
