<svg width="666" height="665" viewBox="0 0 666 665" fill="none" xmlns="http://www.w3.org/2000/svg">
<path d="M103.896 521.254H69.8767V521.586H103.896V521.254Z" fill="#EBEBEB"/>
<path d="M351.648 517.649H205.208V517.982H351.648V517.649Z" fill="#EBEBEB"/>
<path d="M226.44 525.589H129.644V525.922H226.44V525.589Z" fill="#EBEBEB"/>
<path d="M486.18 162.526C486.18 162.526 393.646 155.517 333 136.219C272.394 155.517 179.82 162.526 179.82 162.526C179.82 162.526 175.824 244.082 192.474 326.515C209.124 408.948 333 473.839 333 473.839C333 473.839 456.876 408.948 473.526 326.515C490.176 244.082 486.18 162.526 486.18 162.526Z" fill="#F0F0F0"/>
<path d="M364.076 207.866H301.924V364.194H364.076V207.866Z" fill="white"/>
<path d="M411.282 317.059V255.001H254.718V317.059H411.282Z" fill="white"/>
<path d="M189.544 437.57C187.879 439.512 189.996 442.664 183.27 443.063C179.154 443.315 175.278 443.395 173 443.409C172.972 439.786 172.351 436.192 171.162 432.769C172.947 432.17 175.158 431.439 177.409 430.8C183.336 429.071 182.484 432.449 184.535 433.593C186.587 434.737 185.281 429.085 184.269 426.491C183.257 423.898 180.406 418.843 179.673 421.065C178.941 423.286 181.831 425.214 176.29 427.914C174.132 428.965 172.068 429.896 170.336 430.667C168.905 427.333 166.944 424.252 164.529 421.543C166.274 419.987 169.137 417.474 172.347 414.893C177.596 410.664 178.155 414.428 180.699 414.734C183.243 415.04 179.567 409.866 177.462 407.671C175.358 405.477 170.349 401.553 170.549 404.107C170.749 406.661 174.465 407.392 170.003 412.433C167.339 415.518 164.675 418.245 162.984 419.921C160.394 417.38 157.407 415.277 154.139 413.696C154.978 412.007 156.017 409.986 157.163 407.884C160.12 402.484 161.918 405.464 164.182 404.839C166.447 404.214 161.518 401.115 158.961 399.997C156.403 398.88 150.809 397.337 151.861 399.399C152.914 401.46 156.337 400.809 154.326 406.634C153.54 408.895 152.754 411.023 152.061 412.779C148.69 411.433 145.123 410.642 141.498 410.438C141.632 408.097 141.871 404.307 142.324 400.224C143.043 393.574 146.094 395.781 148.118 394.212C150.143 392.642 143.869 391.552 140.832 391.552C137.795 391.552 131.508 392.257 133.413 393.919C135.318 395.582 138.515 393.48 138.928 400.197C139.181 404.293 139.247 408.097 139.261 410.438C135.631 410.469 132.032 411.093 128.605 412.287C128.005 410.491 127.273 408.297 126.633 406.036C124.902 400.13 128.272 400.968 129.43 398.933C130.589 396.899 124.902 398.189 122.304 399.186C119.707 400.184 114.645 403.043 116.87 403.788C119.094 404.533 121.039 401.62 123.729 407.153C124.782 409.307 125.727 411.369 126.487 413.111C123.15 414.531 120.068 416.485 117.363 418.897C115.791 417.154 113.287 414.295 110.703 411.103C106.467 405.863 110.236 405.291 110.543 402.75C110.849 400.21 105.668 403.894 103.47 405.982C101.272 408.07 97.3559 413.085 99.9 412.898C102.444 412.712 103.203 408.908 108.252 413.444C111.329 416.104 114.072 418.764 115.737 420.439C113.199 423.033 111.099 426.02 109.517 429.284C107.812 428.433 105.787 427.395 103.696 426.252C98.275 423.299 101.259 421.504 100.633 419.256C100.007 417.008 96.903 421.916 95.7841 424.456C94.6653 426.996 93.1201 432.596 95.1981 431.545C97.276 430.494 96.61 427.076 102.431 429.084C104.695 429.869 106.826 430.667 108.585 431.345C107.236 434.711 106.445 438.273 106.24 441.892C103.896 441.773 100.1 441.52 96.0106 441.081C89.3506 440.363 91.575 437.304 89.9899 435.282C88.4048 433.261 87.3259 439.538 87.3259 442.571C87.3259 445.603 88.0319 451.881 89.6969 449.965C91.3619 448.05 89.244 444.818 95.904 444.419C100.02 444.167 103.816 444.087 106.174 444.074C106.196 447.697 106.817 451.292 108.012 454.714C106.214 455.312 104.016 456.044 101.765 456.682C95.8374 458.411 96.6766 455.033 94.6386 453.889C92.6007 452.745 93.8927 458.398 94.8917 460.991C95.8907 463.585 98.7678 468.639 99.5004 466.418C100.233 464.196 97.3292 462.268 102.884 459.568C105.028 458.517 107.106 457.586 108.838 456.815C110.264 460.151 112.225 463.233 114.645 465.939C112.9 467.495 110.037 470.009 106.826 472.589C101.578 476.818 101.019 473.054 98.4748 472.748C95.9307 472.443 99.607 477.616 101.712 479.811C103.816 482.005 108.811 485.929 108.625 483.375C108.438 480.821 104.695 480.09 109.171 475.049C111.835 471.977 114.499 469.237 116.19 467.561C118.78 470.102 121.767 472.205 125.035 473.786C124.196 475.475 123.157 477.496 121.998 479.598C119.041 484.998 117.256 482.019 114.992 482.644C112.727 483.269 117.656 486.368 120.213 487.485C122.77 488.602 128.365 490.145 127.299 488.083C126.234 486.022 122.837 486.674 124.848 480.848C125.621 478.587 126.42 476.472 127.113 474.704C130.482 476.054 134.05 476.844 137.676 477.044C137.542 479.385 137.289 483.176 136.85 487.259C136.13 493.909 133.067 491.701 131.055 493.27C129.044 494.84 135.305 495.93 138.342 495.93C141.378 495.93 147.666 495.239 145.761 493.563C143.856 491.887 140.646 494.002 140.246 487.285C139.993 483.189 139.927 479.385 139.9 477.044C143.529 477.012 147.129 476.388 150.556 475.196C151.155 476.991 151.888 479.186 152.527 481.447C154.259 487.352 150.876 486.514 149.73 488.549C148.585 490.584 154.259 489.294 156.843 488.296C159.427 487.299 164.515 484.439 162.278 483.694C160.04 482.949 158.122 485.862 155.418 480.329C154.379 478.175 153.433 476.113 152.674 474.371C156.01 472.952 159.092 470.997 161.798 468.586C163.37 470.328 165.874 473.187 168.458 476.379C172.68 481.619 168.924 482.191 168.605 484.732C168.285 487.272 173.493 483.588 175.691 481.5C177.889 479.412 181.805 474.398 179.247 474.584C176.69 474.77 175.957 478.507 170.909 474.039C167.832 471.379 165.088 468.718 163.423 467.043C165.961 464.449 168.062 461.462 169.644 458.198C171.335 459.049 173.36 460.087 175.464 461.231C180.872 464.183 177.889 465.979 178.528 468.226C179.167 470.474 182.244 465.566 183.376 463.026C184.509 460.486 186.04 454.886 183.963 455.937C181.885 456.988 182.551 460.406 176.716 458.398C174.465 457.613 172.334 456.815 170.563 456.137C171.923 452.775 172.715 449.211 172.907 445.59C175.251 445.709 179.047 445.962 183.15 446.401C189.81 447.133 187.586 450.178 189.157 452.2C190.729 454.221 191.821 447.944 191.821 444.911C191.821 441.879 191.222 435.628 189.544 437.57Z" fill="#EBEBEB"/>
<path d="M333 568.655C475.634 568.655 591.262 561.914 591.262 553.599C591.262 545.284 475.634 538.544 333 538.544C190.366 538.544 74.7385 545.284 74.7385 553.599C74.7385 561.914 190.366 568.655 333 568.655Z" fill="#F5F5F5"/>
<path d="M281.358 155.61C294.785 187.53 286.407 191.932 299.314 228.76C307.545 252.234 283.33 285.883 265.521 296.896C221.405 324.201 165.954 323.044 133.4 282.678C125.658 273.082 119.886 262.057 116.412 250.233C112.938 238.409 111.831 226.017 113.153 213.766C114.475 201.514 118.201 189.643 124.118 178.829C130.035 168.016 138.028 158.472 147.639 150.742C188.052 118.237 263.736 113.861 281.358 155.61Z" fill="#263238"/>
<path d="M141.951 129.861C137.689 135.687 130.616 149.04 136.517 147.524C142.417 146.007 142.577 136.977 156.27 145.303C169.963 153.628 181.472 161.834 181.472 161.834L182.964 159.8L184.455 157.765C184.455 157.765 173.147 149.306 161.039 138.799C148.931 128.292 157.509 125.406 157.176 119.328C156.843 113.25 146.227 124.036 141.951 129.861Z" fill="#263238"/>
<path d="M266.08 327.818C270.289 321.94 277.202 308.494 271.315 310.09C265.428 311.686 265.374 320.73 251.588 312.537C237.802 304.344 226.2 296.311 226.2 296.311L224.722 298.359L223.256 300.407C223.256 300.407 234.672 308.733 246.899 319.107C259.127 329.481 250.576 332.407 250.989 338.525C251.402 344.643 261.884 333.697 266.08 327.818Z" fill="#263238"/>
<path d="M288.165 151.194C284.395 150.649 276.417 150.636 278.588 153.017C280.759 155.397 285.008 153.243 284.475 161.662C283.942 170.08 282.957 177.462 282.957 177.462L284.289 177.648L285.621 177.848C285.621 177.848 286.793 170.506 288.724 162.287C290.656 154.067 294.052 157.352 296.863 155.637C299.673 153.921 291.948 151.753 288.165 151.194Z" fill="#263238"/>
<path d="M111.515 301.564C117.935 304.889 132.228 309.85 129.83 304.224C127.432 298.598 118.468 299.835 124.648 285.059C130.829 270.283 137.196 257.728 137.196 257.728L134.958 256.557L132.72 255.36C132.72 255.36 126.06 267.796 117.482 281.335C108.904 294.874 104.762 286.841 98.8343 288.105C92.9069 289.368 105.108 298.226 111.515 301.564Z" fill="#263238"/>
<path d="M86.8996 207.294C87.9652 214.449 92.3342 228.906 95.4644 223.68C98.5946 218.453 92.3475 211.922 107.959 208.238C123.57 204.554 137.516 202.306 137.516 202.306L137.143 199.819L136.77 197.332C136.77 197.332 122.77 199.247 106.76 200.272C90.7491 201.296 96.1037 187.184 90.3095 189.126C84.5153 191.068 85.834 200.152 86.8996 207.294Z" fill="#263238"/>
<path d="M304.349 267.556C309.956 263.008 320.199 251.875 314.099 251.849C307.998 251.822 305.547 260.52 294.425 248.989C283.303 237.458 274.259 226.619 274.259 226.619L272.301 228.201L270.343 229.797C270.343 229.797 279.121 240.85 288.165 254.07C297.209 267.29 288.165 267.929 286.953 273.887C285.741 279.845 298.741 272.118 304.349 267.556Z" fill="#263238"/>
<path d="M234.059 101.705C226.866 100.934 211.748 101.506 216.024 105.841C220.299 110.177 228.198 105.841 227.825 121.801C227.452 137.761 226.107 151.859 226.107 151.859L228.611 152.125L231.129 152.391C231.129 152.391 232.807 138.387 235.857 122.666C238.907 106.945 245.714 112.917 250.802 109.579C255.89 106.24 241.252 102.477 234.059 101.705Z" fill="#263238"/>
<path d="M177.063 334.508C184.256 335.28 196.763 336.224 195.111 330.359C193.46 324.494 182.924 330.359 183.297 314.399C183.67 298.439 185.015 284.341 185.015 284.341L182.511 284.075L180.007 283.809C180.007 283.809 178.328 297.814 175.278 313.534C172.228 329.255 165.421 323.283 160.32 326.622C155.218 329.96 169.883 333.724 177.063 334.508Z" fill="#263238"/>
<path d="M114.339 143.387C108.478 146.46 97.2759 154.599 102.737 155.716C108.198 156.834 111.981 149.479 119.88 161.848C127.779 174.217 133.919 185.562 133.919 185.562L135.957 184.484L138.008 183.42C138.008 183.42 132.134 171.916 126.42 158.416C120.706 144.917 128.924 145.981 131.095 140.847C133.267 135.713 120.2 140.315 114.339 143.387Z" fill="#263238"/>
<path d="M293.16 301.697C299.087 298.745 310.476 290.858 305.015 289.608C299.553 288.357 295.691 295.659 288.018 283.13C280.346 270.602 274.472 259.19 274.472 259.19L272.407 260.228L270.343 261.252C270.343 261.252 275.977 272.876 281.398 286.522C286.819 300.168 278.641 298.891 276.363 303.985C274.086 309.079 287.232 304.65 293.16 301.697Z" fill="#263238"/>
<path d="M274.898 117.386C268.904 114.606 254.612 115.032 258.075 119.408C261.538 123.783 269.171 120.551 267.279 135.088C265.388 149.625 262.777 162.26 262.777 162.26L265.041 162.752L267.292 163.231C267.292 163.231 270.183 150.649 274.499 136.631C278.814 122.613 281.705 135.075 286.673 132.535C291.641 129.994 290.229 124.515 274.898 117.386Z" fill="#263238"/>
<path d="M136.517 329.84C141.259 334.442 152.501 342.555 151.861 337.022C151.222 331.489 143.057 330.186 152.367 318.854C161.678 307.523 170.589 298.16 170.589 298.16L168.938 296.59L167.286 294.994C167.286 294.994 158.148 304.131 147.066 313.747C135.984 323.363 134.465 315.223 128.898 314.758C123.33 314.292 131.775 325.265 136.517 329.84Z" fill="#263238"/>
<path d="M130.07 239.4L129.777 237.112C129.777 237.112 116.923 238.549 102.258 239.134C88.498 236.966 81.5583 238.522 83.9293 245.132C84.7418 251.703 88.4181 265.082 91.4018 260.321C94.3855 255.56 88.7378 249.495 103.177 246.462C117.616 243.43 130.349 241.688 130.349 241.688L130.07 239.4Z" fill="#263238"/>
<path d="M188.038 108.741C181.378 108.462 167.819 105.216 171.974 108.927C176.13 112.638 183.11 108.156 183.736 122.799C184.362 137.442 183.989 150.343 183.989 150.343L186.307 150.45L188.611 150.543C188.611 150.543 189.29 137.642 191.129 123.105C192.967 108.568 199.52 113.595 203.982 110.244C208.445 106.892 194.645 109.06 188.038 108.741Z" fill="#263238"/>
<path d="M208.005 351.32C211.801 345.906 228.411 352.211 224.642 348.101C220.872 343.991 213.493 347.755 214.332 333.125C215.171 318.495 216.85 305.687 216.85 305.687L214.558 305.355L212.281 305.036C212.281 305.036 210.296 317.79 206.953 332.088C203.609 346.385 197.629 340.693 192.874 343.592C188.118 346.492 204.209 356.733 208.005 351.32Z" fill="#263238"/>
<path d="M142.138 199.274C142.138 199.274 170.936 194.739 186.946 206.549C186.946 206.549 160.12 209.967 142.551 221.738C145.091 215.559 149.55 210.356 155.271 206.895C155.271 206.895 148.092 200.165 142.138 199.274Z" fill="white"/>
<path d="M260.686 178.1C260.686 178.1 240.559 178.42 233.566 192.398C233.566 192.398 252.081 191.321 266.986 199.793C261.072 190.469 254.412 187.53 254.412 187.53C254.412 187.53 257.076 179.936 260.686 178.1Z" fill="white"/>
<path opacity="0.1" d="M262.151 269.87C250.496 272.278 239.347 265.96 237.229 255.759C235.111 245.558 242.357 232.99 254.012 230.582C265.667 228.175 275.324 239.892 277.389 250.053C279.454 260.215 273.793 267.463 262.151 269.87Z" fill="white"/>
<path opacity="0.1" d="M191.582 179.164C186.16 184.165 178.262 184.365 173.839 179.63C171.602 176.974 170.447 173.574 170.605 170.107C170.763 166.64 172.222 163.359 174.692 160.917C180.1 155.929 188.944 159.055 193.34 163.803C197.735 168.551 196.989 174.23 191.582 179.164Z" fill="white"/>
<path opacity="0.1" d="M243.01 287.44C238.947 291.19 232.993 291.337 229.69 287.785C228.008 285.793 227.14 283.241 227.259 280.638C227.377 278.035 228.474 275.573 230.329 273.741C234.325 269.99 240.985 272.411 244.315 275.895C247.645 279.38 247.073 283.689 243.01 287.44Z" fill="white"/>
<path d="M173.533 250.692C175.344 230.941 227.532 210.074 254.532 228.082C281.532 246.09 241.944 243.55 220.899 248.524C199.853 253.498 170.589 282.678 173.533 250.692Z" fill="#09A8EF"/>
<path opacity="0.1" d="M192.421 206.15C193.646 219.916 181.578 232.231 165.488 233.641C149.397 235.051 131.615 225.395 130.403 211.63C129.191 197.864 149.184 187.929 165.261 186.506C181.338 185.083 191.209 192.438 192.421 206.15Z" fill="white"/>
<path d="M176.45 234.705L181.911 247.114L190.516 234.705L202.944 237.711L208.618 228.029L223.976 234.16L228.531 224.85L239.001 226.672L242.824 233.801L253.613 223.44C253.613 223.44 233.406 213.212 211.135 218.945C188.864 224.677 176.45 234.705 176.45 234.705Z" fill="#263238"/>
<path d="M324.582 194.18C317.586 194.218 310.592 193.893 303.629 193.209L303.763 192.012C315.231 193.342 334.518 193.342 343.456 192.012L343.629 193.209C337.307 193.933 330.945 194.258 324.582 194.18Z" fill="#09A8EF"/>
<path d="M334.918 190.788V189.591C344.389 189.591 359.893 187.104 360.053 187.078L360.239 188.275C360.093 188.301 344.482 190.788 334.918 190.788Z" fill="#09A8EF"/>
<path d="M344.269 226.685C344.109 226.685 328.764 223.32 319.307 222.815L319.374 221.605C328.924 222.123 344.375 225.475 344.522 225.502L344.269 226.685Z" fill="#09A8EF"/>
<path d="M284.888 186.812L283.729 186.453C285.388 182.574 288.016 179.185 291.362 176.611L292.054 177.595C288.928 180.017 286.463 183.187 284.888 186.812Z" fill="white"/>
<path d="M276.936 186.519C276.346 182.342 276.836 178.084 278.361 174.15L279.467 174.629C278.053 178.321 277.594 182.31 278.135 186.227L276.936 186.519Z" fill="white"/>
<path d="M292.947 230.954C290.492 230.016 288.197 228.706 286.14 227.071L286.926 226.153C288.881 227.689 291.054 228.927 293.373 229.824L292.947 230.954Z" fill="white"/>
<path d="M430.596 164.627C433.353 172.701 441.252 182.995 444.142 192.065C444.435 197.465 433.193 207.068 423.523 212.707C414.119 211.124 413.293 204.621 414.878 200.737C423.11 196.747 418.501 188.873 415.371 183.194L430.596 164.627Z" fill="#FF8B7B"/>
<path d="M452.361 189.192C454.967 189.509 457.512 190.208 459.913 191.267C462.22 192.295 464.446 193.496 466.573 194.858C470.938 197.492 475.166 200.346 479.24 203.41C483.492 206.562 487.499 210.03 491.228 213.784C493.248 215.806 495.135 217.956 496.876 220.221C498.943 222.862 500.616 225.787 501.844 228.906L502.151 229.678C502.757 231.286 502.781 233.055 502.217 234.678C498.889 244.708 492.96 253.679 485.035 260.68C481.005 264.067 476.441 266.763 471.528 268.66C466.664 270.528 461.501 271.501 456.29 271.533C455.09 271.544 453.93 271.104 453.041 270.299C452.152 269.495 451.6 268.385 451.494 267.192C451.388 265.998 451.736 264.809 452.47 263.861C453.203 262.913 454.268 262.276 455.451 262.076H455.544C463.294 260.699 470.321 256.669 475.417 250.678C480.457 244.753 483.819 237.589 485.154 229.93L485.514 235.689C484.674 234.459 483.705 233.322 482.624 232.298C481.184 230.93 479.663 229.651 478.068 228.467C474.711 225.954 470.915 223.586 467.066 221.259C463.216 218.931 459.207 216.684 455.171 214.462C453.112 213.417 451.115 212.254 449.19 210.978C447.21 209.697 445.417 208.148 443.862 206.376L443.25 205.631C441.976 204.065 441.198 202.156 441.016 200.146C440.835 198.137 441.257 196.119 442.229 194.351C443.201 192.582 444.679 191.143 446.474 190.217C448.269 189.291 450.3 188.921 452.307 189.153L452.361 189.192Z" fill="#FF8B7B"/>
<path d="M462.35 259.736C459.926 257.501 452.84 256.544 445.514 261.678C437.016 261.678 430.049 266.466 431.688 275.43C433.326 284.394 440.039 291.935 445.714 290.871C458.088 288.53 468.478 272.876 468.478 272.876C468.196 267.874 466.002 263.171 462.35 259.736Z" fill="#09A8EF"/>
<path d="M465.188 277.199C470.009 272.238 476.963 272.171 478.175 268.939C478.175 264.577 472.993 254.309 470.502 252.328C464.975 255.28 456.756 260.999 456.756 260.999C456.756 260.999 459.953 282.558 465.188 277.199Z" fill="#09A8EF"/>
<path d="M466.746 274.219C466.581 274.217 466.423 274.155 466.3 274.045C466.178 273.935 466.099 273.784 466.08 273.621C465.476 269.101 463.511 264.871 460.446 261.491C460.384 261.429 460.334 261.356 460.301 261.275C460.267 261.194 460.25 261.107 460.25 261.019C460.25 260.931 460.267 260.845 460.301 260.764C460.334 260.683 460.384 260.609 460.446 260.547C460.508 260.485 460.582 260.436 460.663 260.402C460.744 260.369 460.831 260.351 460.919 260.351C461.006 260.351 461.093 260.369 461.174 260.402C461.256 260.436 461.329 260.485 461.391 260.547C464.688 264.137 466.791 268.657 467.412 273.488C467.427 273.664 467.373 273.838 467.261 273.975C467.149 274.112 466.988 274.199 466.813 274.219H466.746Z" fill="white"/>
<path d="M457.289 189.565C449.589 186.346 441.198 185.129 432.9 186.027C422.044 187.078 406.833 188.687 400.399 192.956C392.807 198.024 392.594 200.285 392.754 205.751C393.539 234.306 408.604 244.441 409.39 289.541C411.282 289.541 467.013 290.499 467.013 290.499C467.998 262.741 471.102 232.151 468.345 203.53C467.639 196.082 463.696 192.025 457.289 189.565Z" fill="#263238"/>
<path d="M414.785 210.26C410.962 213.545 406.673 214.689 402.251 215.699C397.828 216.71 393.419 217.654 388.931 218.359C384.442 219.064 379.806 219.583 375.064 219.889C373.866 219.889 372.694 220.022 371.468 220.062L367.765 220.128C366.433 220.128 365.168 220.048 363.902 219.982C362.637 219.915 361.478 219.796 360.319 219.676C355.697 219.184 351.315 218.546 346.906 217.881C342.497 217.216 338.168 216.551 333.812 215.753C325.128 214.236 316.496 212.614 307.865 210.845C306.683 210.615 305.632 209.946 304.923 208.974C304.214 208.002 303.9 206.799 304.043 205.605C304.187 204.411 304.777 203.315 305.696 202.538C306.615 201.761 307.794 201.36 308.997 201.415C317.709 201.734 326.46 202.027 335.158 202.28C339.513 202.386 343.856 202.519 348.171 202.559C352.487 202.599 356.816 202.652 360.932 202.559C361.958 202.559 362.903 202.439 363.902 202.386L366.566 202.027L369.403 201.495C370.349 201.309 371.335 201.056 372.307 200.843C376.21 199.886 380.193 198.702 384.202 197.518L396.31 193.874C400.306 192.544 404.435 191.334 408.951 192.025L409.537 192.118C411.511 192.414 413.358 193.27 414.859 194.584C416.36 195.898 417.451 197.615 418.002 199.53C418.554 201.446 418.542 203.479 417.97 205.388C417.397 207.298 416.287 209.002 414.771 210.3L414.785 210.26Z" fill="#FF8B7B"/>
<path d="M316.936 214.861C315.777 217.96 309.877 221.99 301.019 220.687C293.413 224.464 285.035 223.347 282.477 214.595C279.92 205.844 282.477 196.108 288.072 194.512C300.18 191.054 316.497 200.378 316.497 200.378C318.497 204.971 318.654 210.156 316.936 214.861Z" fill="#09A8EF"/>
<path d="M311.608 197.997C318.161 200.271 324.395 197.212 326.939 199.553C328.937 203.423 328.884 214.941 327.552 217.841C321.292 217.681 311.368 216.245 311.368 216.245C311.368 216.245 304.535 195.51 311.608 197.997Z" fill="#09A8EF"/>
<path d="M315.071 215.034H314.871C314.704 214.98 314.565 214.861 314.485 214.703C314.405 214.546 314.391 214.364 314.445 214.196C315.666 209.797 315.517 205.13 314.019 200.817C313.958 200.651 313.964 200.468 314.036 200.306C314.108 200.145 314.241 200.018 314.405 199.952C314.487 199.92 314.575 199.905 314.663 199.907C314.751 199.909 314.838 199.928 314.919 199.964C314.999 200 315.072 200.052 315.133 200.116C315.193 200.18 315.24 200.255 315.271 200.338C316.891 204.935 317.045 209.921 315.711 214.609C315.661 214.737 315.573 214.847 315.459 214.923C315.344 214.999 315.209 215.038 315.071 215.034Z" fill="white"/>
<path d="M400.426 167.846C400.719 168.684 400.506 169.508 399.96 169.695C399.414 169.881 398.721 169.349 398.441 168.511C398.161 167.673 398.361 166.848 398.907 166.662C399.454 166.476 400.146 167.008 400.426 167.846Z" fill="#263238"/>
<path d="M399.973 168.351C400.375 171.223 400.375 174.137 399.973 177.01C400.714 177.099 401.467 177.026 402.177 176.797C402.888 176.567 403.54 176.186 404.089 175.68L399.973 168.351Z" fill="#FF5652"/>
<path d="M396.936 163.923C397.005 163.976 397.085 164.013 397.171 164.029C397.257 164.045 397.345 164.041 397.429 164.016C398.042 163.79 398.702 163.718 399.35 163.806C399.998 163.894 400.614 164.14 401.145 164.521C401.198 164.564 401.26 164.596 401.325 164.615C401.391 164.635 401.46 164.641 401.528 164.633C401.596 164.626 401.662 164.605 401.722 164.572C401.782 164.539 401.835 164.495 401.878 164.441C401.921 164.388 401.953 164.327 401.972 164.261C401.991 164.196 401.998 164.127 401.99 164.059C401.983 163.991 401.962 163.925 401.929 163.865C401.896 163.805 401.851 163.752 401.798 163.71C401.13 163.225 400.355 162.909 399.539 162.789C398.722 162.669 397.889 162.747 397.109 163.018C397.043 163.038 396.982 163.07 396.93 163.114C396.877 163.158 396.834 163.212 396.803 163.273C396.772 163.334 396.753 163.4 396.749 163.469C396.744 163.537 396.753 163.605 396.776 163.67C396.805 163.767 396.86 163.855 396.936 163.923Z" fill="#263238"/>
<path d="M428.065 155.264C430.969 165.771 433.206 171.77 429.796 178.805C424.655 189.365 410.256 188.913 404.249 179.457C398.841 170.945 395.005 155.198 403.729 147.723C405.661 146.066 407.982 144.926 410.476 144.41C412.97 143.894 415.554 144.018 417.986 144.772C420.418 145.526 422.619 146.884 424.382 148.719C426.145 150.554 427.412 152.806 428.065 155.264Z" fill="#FF8B7B"/>
<path d="M411.881 167.686C410.963 167.929 410.001 167.957 409.071 167.77C408.14 167.583 407.264 167.185 406.511 166.607C405.759 166.028 405.149 165.286 404.729 164.435C404.309 163.585 404.09 162.65 404.089 161.701C404.137 159.399 404.673 157.133 405.661 155.051C405.661 155.051 398.428 158.097 394.778 153.056C390.636 147.337 396.763 140.062 402.477 138.613C402.038 144.066 408.538 140.621 411.881 139.317C418.421 136.764 425.308 135.992 431.075 138.879C430.229 139.285 429.482 139.872 428.889 140.598C428.295 141.324 427.868 142.172 427.639 143.081C427.639 143.081 438.068 143.534 437.629 150.955C437.189 158.376 430.636 170.24 438.401 172.9C434.023 175.068 429.05 175.733 424.254 174.79C419.459 173.847 415.11 171.35 411.881 167.686Z" fill="#263238"/>
<path d="M414.865 180.601L413.613 180.162C414.945 176.637 416.383 171.597 414.812 168.312C414.495 167.677 414.051 167.113 413.508 166.656C412.966 166.198 412.335 165.857 411.655 165.652C411.092 165.42 410.484 165.321 409.877 165.36C409.27 165.399 408.68 165.576 408.152 165.878C406.034 167.141 405.008 170.373 404.742 172.089L403.41 171.876C403.796 169.469 405.075 166.157 407.406 164.747C408.097 164.338 408.874 164.094 409.676 164.034C410.478 163.974 411.283 164.1 412.028 164.401C412.88 164.669 413.668 165.108 414.344 165.691C415.02 166.274 415.569 166.99 415.957 167.793C417.795 171.477 416.21 176.89 414.865 180.601Z" fill="#09A8EF"/>
<path d="M415.717 165.372C415.707 166.593 415.453 167.799 414.971 168.92C414.488 170.041 413.786 171.055 412.907 171.903C410.536 174.164 407.792 172.435 407.152 169.402C406.566 166.676 407.152 162.22 410.096 161.116C410.756 160.88 411.464 160.811 412.156 160.917C412.849 161.023 413.504 161.3 414.062 161.723C414.62 162.146 415.064 162.701 415.353 163.338C415.642 163.975 415.767 164.674 415.717 165.372Z" fill="#FF8B7B"/>
<path d="M404.928 171.57C403.449 168.764 400.08 173.618 399.4 175.839C398.721 178.06 400.173 182.689 406.207 184.923C417.582 189.139 417.822 180.055 415.025 179.776C413.613 179.63 405.154 178.539 404.928 171.57Z" fill="#09A8EF"/>
<path d="M415.97 395.901C436.843 362.651 453.373 290.219 453.373 290.219L410.522 289.474C410.522 289.474 390.276 367.519 390.276 394.119C390.276 428.287 391.422 531.707 391.422 531.707L403.929 534.234C403.929 534.234 424.402 445.55 415.97 395.901Z" fill="#FF8B7B"/>
<path d="M405.647 537.426L406.66 544.143C407.019 546.909 405.434 548.066 404.182 548.332C398.588 549.476 393.713 548.492 388.345 549.37C382.058 550.394 383.017 553.041 374.026 553.041C369.523 553.041 368.817 548.532 370.722 548C384.402 544.249 383.629 539.794 388.451 535.112C388.451 535.112 389.21 509.962 388.877 486.461C406.047 488.722 412.92 496.09 412.92 496.09C412.92 496.09 409.297 519.165 405.647 537.426Z" fill="#09A8EF"/>
<path d="M498.168 397.231C493.719 353.926 484.981 315.449 465.587 290.432L429.197 289.794C429.197 289.794 461.658 371.256 472.594 404.174C483.956 438.395 527.539 534.115 527.539 534.115L538.621 531.375C538.621 531.375 521.704 432.543 498.168 397.231Z" fill="#FF8B7B"/>
<path d="M542.417 535.551L545.241 542.587C546.466 545.353 545.627 546.909 543.483 547.468C539.26 548.585 535.357 547.601 529.976 548.625C523.689 549.822 523.769 553.041 513.992 553.041C509.463 553.041 507.172 549.902 511.102 548.625C519.094 546.032 521.998 538.929 525.221 535.032C517.403 520.4 510.723 505.189 505.241 489.533C523.29 488.203 532.694 492.193 532.694 492.193C532.694 492.193 538.474 516.878 542.417 535.551Z" fill="#09A8EF"/>
<path d="M423.443 289.474C423.443 289.474 448.138 368.171 462.071 386.564C494.345 389.81 508.504 371.575 508.504 371.575C494.159 350.748 490.789 311.14 467.039 289.86C453.133 289.022 423.443 289.474 423.443 289.474Z" fill="#09A8EF"/>
<path opacity="0.2" d="M452.054 325.85C447.419 333.75 444.355 339.895 442.73 345.175C445.208 351.665 447.752 358.036 450.243 363.861C452.374 352.836 453.586 336.264 452.054 325.85Z" fill="black"/>
<path d="M409.257 284.753L467.346 286.083C467.431 286.083 467.515 286.1 467.593 286.133C467.672 286.166 467.743 286.214 467.802 286.275C467.862 286.335 467.909 286.407 467.94 286.486C467.971 286.565 467.987 286.65 467.985 286.735V290.538C467.985 290.711 467.916 290.877 467.794 290.999C467.671 291.121 467.505 291.19 467.332 291.19L409.537 290.818C409.371 290.815 409.213 290.751 409.092 290.638C408.971 290.525 408.897 290.371 408.884 290.206L408.591 285.445C408.583 285.354 408.595 285.263 408.625 285.177C408.656 285.092 408.704 285.014 408.767 284.948C408.83 284.883 408.907 284.831 408.991 284.798C409.075 284.764 409.166 284.749 409.257 284.753Z" fill="#09A8EF"/>
<path d="M409.11 288.756C401.838 305.381 395.897 343.805 388.118 373.504C425.201 389.69 435.631 384.596 435.631 384.596C435.631 384.596 466.866 312.031 453.826 289.794C439.986 289.022 409.11 288.756 409.11 288.756Z" fill="#09A8EF"/>
<path d="M414.785 363.768C413.08 370.338 407.339 374.408 401.971 372.772C396.603 371.136 393.633 364.54 395.311 357.956C396.989 351.373 402.757 347.316 408.125 348.952C413.493 350.588 416.503 357.198 414.785 363.768Z" fill="white"/>
<path d="M412.121 359.858L408.178 358.674L409.43 353.86L404.715 352.45L403.463 357.265L399.52 356.094L398.015 361.866L401.958 363.05L400.706 367.878L405.421 369.274L406.673 364.46L410.616 365.63L412.121 359.858Z" fill="#09A8EF"/>
</svg>
