<svg width="27" height="41" viewBox="0 0 27 41" fill="none" xmlns="http://www.w3.org/2000/svg">
<path d="M21.035 0H5.96501C5.21826 0 4.61546 0.602799 4.61546 1.34955V7.93086H1.34955C0.602799 7.93086 0 8.53366 0 9.28041V38.957C0 39.7038 0.602799 40.3066 1.34955 40.3066H9.80673V38.6511C9.80673 37.9043 10.4095 37.3016 11.1563 37.3016H15.8437C16.5906 37.3016 17.1933 37.9043 17.1933 38.6511V40.3066H25.6504C26.3973 40.3066 27 39.7038 27 38.957V9.28041C27 8.53366 26.3973 7.93086 25.6504 7.93086H22.3845V1.34955C22.3845 0.602799 21.7817 0 21.035 0ZM9.80678 33.2619C9.80678 34.0087 9.20398 34.6115 8.45723 34.6115H4.19715C3.4504 34.6115 2.8476 34.0087 2.8476 33.2619V31.9978C2.8476 31.2511 3.4504 30.6483 4.19715 30.6483H8.45723C9.20398 30.6483 9.80678 31.2511 9.80678 31.9978V33.2619ZM9.80678 26.4017C9.80678 27.1485 9.20398 27.7512 8.45723 27.7512H4.19715C3.4504 27.7512 2.8476 27.1485 2.8476 26.4017V25.1376C2.8476 24.3909 3.4504 23.7881 4.19715 23.7881H8.45723C9.20398 23.7881 9.80678 24.3909 9.80678 25.1376V26.4017ZM9.80678 19.5415C9.80678 20.2882 9.20398 20.891 8.45723 20.891H4.19715C3.4504 20.891 2.8476 20.2882 2.8476 19.5415V18.2774C2.8476 17.5307 3.4504 16.9279 4.19715 16.9279H8.45723C9.20398 16.9279 9.80678 17.5307 9.80678 18.2774V19.5415ZM17.1843 13.401C16.4375 13.401 15.8347 12.7982 15.8347 12.0515V9.77074H11.1653V12.0515C11.1653 12.7982 10.5625 13.401 9.81573 13.401H8.83506C8.0883 13.401 7.48551 12.7982 7.48551 12.0515V3.81023C7.48551 3.06348 8.0883 2.46068 8.83506 2.46068H9.81573C10.5625 2.46068 11.1653 3.06348 11.1653 3.81023V6.09097H15.8347V3.81023C15.8347 3.06348 16.4375 2.46068 17.1843 2.46068H18.165C18.9117 2.46068 19.5145 3.06348 19.5145 3.81023V12.0515C19.5145 12.7982 18.9117 13.401 18.165 13.401H17.1843ZM24.1525 33.2619C24.1525 34.0087 23.5497 34.6115 22.8029 34.6115H18.5428C17.7961 34.6115 17.1933 34.0087 17.1933 33.2619V31.9978C17.1933 31.2511 17.7961 30.6483 18.5428 30.6483H22.8029C23.5497 30.6483 24.1525 31.2511 24.1525 31.9978V33.2619ZM24.1525 26.4017C24.1525 27.1485 23.5497 27.7512 22.8029 27.7512H18.5428C17.7961 27.7512 17.1933 27.1485 17.1933 26.4017V25.1376C17.1933 24.3909 17.7961 23.7881 18.5428 23.7881H22.8029C23.5497 23.7881 24.1525 24.3909 24.1525 25.1376V26.4017ZM22.8029 16.9279C23.5497 16.9279 24.1525 17.5307 24.1525 18.2774V19.5415C24.1525 20.2882 23.5497 20.891 22.8029 20.891H18.5428C17.7961 20.891 17.1933 20.2882 17.1933 19.5415V18.2774C17.1933 17.5307 17.7961 16.9279 18.5428 16.9279H22.8029Z" fill="#09A8EF"/>
</svg>
