<svg width="27" height="41" viewBox="0 0 27 41" fill="none" xmlns="http://www.w3.org/2000/svg">
<path d="M13.4994 0.282227C6.05575 0.282227 0 6.50992 0 14.164C0 21.5317 12.2482 38.7453 12.7698 39.4743L13.2565 40.1554C13.3134 40.2354 13.4041 40.2822 13.4994 40.2822C13.5962 40.2822 13.6863 40.2354 13.7438 40.1554L14.2302 39.4743C14.752 38.7453 27 21.5317 27 14.164C27 6.50992 20.9433 0.282227 13.4994 0.282227ZM13.4994 9.19158C16.1665 9.19158 18.3353 11.4217 18.3353 14.164C18.3353 16.9049 16.1664 19.1364 13.4994 19.1364C10.8339 19.1364 8.66356 16.9049 8.66356 14.164C8.66356 11.4217 10.8338 9.19158 13.4994 9.19158Z" fill="#09A8EF"/>
</svg>
