<svg width="28" height="28" viewBox="0 0 28 28" fill="none" xmlns="http://www.w3.org/2000/svg">
<path d="M7.43768 11.3792C8.34539 13.0245 9.39157 14.6035 10.7498 16.0435C12.1125 17.4922 13.8071 18.8107 16.0005 19.937C16.1632 20.0165 16.317 20.0165 16.4555 19.9613C16.6643 19.8818 16.8775 19.7073 17.0863 19.4975C17.2489 19.3341 17.4511 19.0735 17.6621 18.7886C18.5061 17.6733 19.5501 16.2886 21.0248 16.9821C21.0578 16.9975 21.082 17.0152 21.1149 17.0284L26.0337 19.8707C26.0491 19.8796 26.0667 19.895 26.0799 19.9039C26.7282 20.3522 26.9964 21.0434 27.003 21.8274C27.003 22.6247 26.7107 23.5213 26.2821 24.2788C25.715 25.2793 24.8799 25.9418 23.9172 26.3791C23.0007 26.8031 21.9809 27.0306 21.0006 27.1764C19.4621 27.4038 18.0203 27.2581 16.5456 26.8031C15.1038 26.3548 13.651 25.615 12.0642 24.63L11.9477 24.5549C11.2202 24.0978 10.4334 23.6097 9.66191 23.0333C6.83986 20.8911 3.96287 17.797 2.0881 14.3915C0.516634 11.5338 -0.34053 8.44852 0.127613 5.50905C0.38696 3.89686 1.07489 2.43044 2.27492 1.46313C3.3211 0.615075 4.72992 0.151296 6.55414 0.314722C6.76294 0.330182 6.94975 0.451648 7.04866 0.632742L10.2026 5.99049C10.6641 6.5912 10.7213 7.18749 10.4685 7.78377C10.2597 8.27185 9.83774 8.72237 9.2619 9.14198C9.09266 9.28774 8.89046 9.43571 8.67727 9.5903C7.97176 10.1049 7.16954 10.699 7.44427 11.3968L7.43768 11.3792Z" fill="#09A8EF"/>
</svg>
